<svg width="23" height="23" viewBox="0 0 23 23" fill="none" xmlns="http://www.w3.org/2000/svg">
<path d="M20.2284 8.56456L19.4021 5.53305C19.0833 4.36351 18.9238 3.77931 18.5968 3.33826C18.2708 2.90008 17.828 2.56253 17.319 2.36422C16.807 2.16406 16.2019 2.16406 14.9916 2.16406M2.77246 8.56456L3.59871 5.53305C3.91757 4.36351 4.077 3.77931 4.40401 3.33826C4.73006 2.90008 5.17287 2.56253 5.68178 2.36422C6.19382 2.16406 6.79896 2.16406 8.00923 2.16406" stroke="black" stroke-width="1.5"/>
<path d="M8.00879 2.16373C8.00879 1.85509 8.1314 1.55909 8.34964 1.34085C8.56788 1.12261 8.86388 1 9.17252 1H13.8274C14.1361 1 14.4321 1.12261 14.6503 1.34085C14.8685 1.55909 14.9911 1.85509 14.9911 2.16373C14.9911 2.47237 14.8685 2.76836 14.6503 2.98661C14.4321 3.20485 14.1361 3.32745 13.8274 3.32745H9.17252C8.86388 3.32745 8.56788 3.20485 8.34964 2.98661C8.1314 2.76836 8.00879 2.47237 8.00879 2.16373Z" stroke="black" stroke-width="1.5"/>
<path d="M2.03192 16.658C1.03344 12.6641 0.534204 10.6683 1.58272 9.32536C2.63008 7.98242 4.68987 7.98242 8.80597 7.98242H14.194C18.3113 7.98242 20.3688 7.98242 21.4173 9.32536C22.4658 10.6671 21.9666 12.6653 20.9681 16.658C20.3327 19.1984 20.0162 20.468 19.0689 21.2082C18.1216 21.9471 16.8124 21.9471 14.194 21.9471H8.80597C6.18759 21.9471 4.8784 21.9471 3.93112 21.2082C2.98385 20.468 2.66615 19.1984 2.03192 16.658Z" stroke="black" stroke-width="1.5"/>
</svg>
