<svg width="26" height="26" viewBox="0 0 26 26" fill="none" xmlns="http://www.w3.org/2000/svg">
<path d="M17.6734 13.7252L17.3295 13.9943L17.7357 14.1547C19.8974 15.0079 21.7848 16.4301 23.1956 18.2686C24.6061 20.1069 25.4871 22.2921 25.744 24.5901C25.7736 24.8648 25.6928 25.1402 25.5189 25.3564C25.3478 25.5691 25.1 25.7075 24.8279 25.7422L24.6992 25.7422L24.6977 25.7422C24.4361 25.7437 24.1835 25.6489 23.9884 25.4763C23.7934 25.3037 23.6699 25.0656 23.6413 24.8082L23.6412 24.8078C23.3474 22.2065 22.1002 19.8044 20.1384 18.0602C18.1766 16.3161 15.6377 15.3521 13.0068 15.3521C10.3758 15.3521 7.8369 16.3161 5.8751 18.0602C3.91327 19.8044 2.66611 22.2065 2.3723 24.8078L2.37223 24.8083C2.34146 25.0866 2.20076 25.3417 1.9806 25.5172C1.76039 25.6928 1.47879 25.7744 1.19778 25.7436C0.916784 25.7129 0.659927 25.5724 0.483531 25.3536C0.396196 25.2453 0.331229 25.121 0.292274 24.9879C0.253319 24.8547 0.241123 24.7153 0.256365 24.5775C0.512067 22.2858 1.38828 20.106 2.79174 18.2704C4.19527 16.4348 6.07351 15.0121 8.22634 14.1544L8.63051 13.9933L8.28787 13.7252C7.04795 12.7551 6.14313 11.4248 5.69904 9.91976C5.25495 8.4147 5.29359 6.80944 5.80961 5.32722C6.32563 3.84499 7.29344 2.55933 8.57867 1.64925C9.86391 0.739164 11.4026 0.25 12.9806 0.25C14.5587 0.25 16.0973 0.739164 17.3826 1.64925C18.6678 2.55933 19.6356 3.84499 20.1516 5.32722C20.6677 6.80944 20.7063 8.4147 20.2622 9.91976C19.8181 11.4248 18.9133 12.7551 17.6734 13.7252ZM9.93903 12.332C10.8395 12.9304 11.8979 13.2496 12.9806 13.2496C14.4324 13.2496 15.825 12.6761 16.852 11.6547C17.8791 10.6333 18.4563 9.24773 18.4563 7.80265C18.4563 6.72502 18.135 5.67171 17.5331 4.77592C16.9313 3.88015 16.076 3.18219 15.0756 2.77009C14.0752 2.35799 12.9745 2.25019 11.9126 2.46025C10.8507 2.67032 9.8751 3.18887 9.10922 3.95055C8.34333 4.71223 7.8216 5.68285 7.61021 6.73973C7.39882 7.79662 7.50733 8.89209 7.92194 9.88757C8.33655 10.883 9.03858 11.7337 9.93903 12.332Z" fill="#272624" stroke="white" stroke-width="0.5"/>
</svg>
